<mxfile host="aa41cd1f-c90b-4613-b6ef-6388f7106509" modified="2020-08-13T04:59:41.217Z" agent="5.0 (Windows NT 10.0; Win64; x64) AppleWebKit/537.36 (KHTML, like Gecko) Code/1.47.3 Chrome/78.0.3904.130 Electron/7.3.2 Safari/537.36" etag="XPme-NXFDakbeJ7luOGw" version="13.1.3" pages="4">
    <diagram id="6hGFLwfOUW9BJ-s0fimq" name="bst_node">
        <mxGraphModel dx="1705" dy="844" grid="1" gridSize="10" guides="1" tooltips="1" connect="1" arrows="1" fold="1" page="1" pageScale="1" pageWidth="827" pageHeight="1169" math="0" shadow="0">
            <root>
                <mxCell id="0"/>
                <mxCell id="1" parent="0"/>
                <mxCell id="11" value="" style="rounded=0;whiteSpace=wrap;html=1;strokeColor=none;strokeWidth=2;fillColor=#FFFFFF;" parent="1" vertex="1">
                    <mxGeometry x="60" y="210" width="280" height="170" as="geometry"/>
                </mxCell>
                <mxCell id="3" value="&lt;font style=&quot;font-size: 16px&quot; color=&quot;#000000&quot;&gt;key&lt;/font&gt;" style="rounded=0;whiteSpace=wrap;html=1;strokeColor=#000000;strokeWidth=2;fillColor=none;" parent="1" vertex="1">
                    <mxGeometry x="160" y="280" width="80" height="40" as="geometry"/>
                </mxCell>
                <mxCell id="4" value="&lt;font style=&quot;font-size: 16px&quot; color=&quot;#000000&quot;&gt;data&lt;/font&gt;" style="rounded=0;whiteSpace=wrap;html=1;strokeColor=#000000;strokeWidth=2;fillColor=none;" parent="1" vertex="1">
                    <mxGeometry x="160" y="320" width="80" height="40" as="geometry"/>
                </mxCell>
                <mxCell id="5" value="" style="endArrow=none;html=1;entryX=1;entryY=0.5;entryDx=0;entryDy=0;strokeColor=#000000;strokeWidth=2;" parent="1" target="3" edge="1">
                    <mxGeometry width="50" height="50" relative="1" as="geometry">
                        <mxPoint x="290" y="330" as="sourcePoint"/>
                        <mxPoint x="440" y="560" as="targetPoint"/>
                    </mxGeometry>
                </mxCell>
                <mxCell id="6" value="" style="endArrow=none;html=1;entryX=0;entryY=0.5;entryDx=0;entryDy=0;strokeColor=#000000;strokeWidth=2;" parent="1" target="3" edge="1">
                    <mxGeometry width="50" height="50" relative="1" as="geometry">
                        <mxPoint x="110" y="330" as="sourcePoint"/>
                        <mxPoint x="250" y="310" as="targetPoint"/>
                    </mxGeometry>
                </mxCell>
                <mxCell id="7" value="" style="endArrow=none;html=1;entryX=0.5;entryY=0;entryDx=0;entryDy=0;strokeColor=#000000;strokeWidth=2;" parent="1" target="3" edge="1">
                    <mxGeometry width="50" height="50" relative="1" as="geometry">
                        <mxPoint x="200" y="240" as="sourcePoint"/>
                        <mxPoint x="260" y="320" as="targetPoint"/>
                    </mxGeometry>
                </mxCell>
                <mxCell id="8" value="&lt;span style=&quot;color: rgb(0 , 0 , 0) ; font-size: 16px&quot;&gt;right&lt;/span&gt;" style="text;html=1;strokeColor=none;fillColor=none;align=center;verticalAlign=middle;whiteSpace=wrap;rounded=0;" parent="1" vertex="1">
                    <mxGeometry x="290" y="320" width="40" height="20" as="geometry"/>
                </mxCell>
                <mxCell id="9" value="&lt;span style=&quot;color: rgb(0 , 0 , 0) ; font-size: 16px&quot;&gt;left&lt;/span&gt;" style="text;html=1;strokeColor=none;fillColor=none;align=center;verticalAlign=middle;whiteSpace=wrap;rounded=0;" parent="1" vertex="1">
                    <mxGeometry x="70" y="320" width="40" height="20" as="geometry"/>
                </mxCell>
                <mxCell id="10" value="&lt;span style=&quot;color: rgb(0 , 0 , 0) ; font-size: 16px&quot;&gt;parent&lt;/span&gt;" style="text;html=1;strokeColor=none;fillColor=none;align=center;verticalAlign=middle;whiteSpace=wrap;rounded=0;" parent="1" vertex="1">
                    <mxGeometry x="180" y="220" width="40" height="20" as="geometry"/>
                </mxCell>
            </root>
        </mxGraphModel>
    </diagram>
    <diagram name="single_tbst" id="_xg0g-DIo7odUrfRXbNA">
        &#xa;        
        <mxGraphModel dx="1705" dy="844" grid="1" gridSize="10" guides="1" tooltips="1" connect="1" arrows="1" fold="1" page="1" pageScale="1" pageWidth="827" pageHeight="1169" math="0" shadow="0">
            &#xa;            
            <root>
                &#xa;                
                <mxCell id="zjKLOU4Ie6Ycb2HuvHiI-0"/>
                &#xa;                
                <mxCell id="zjKLOU4Ie6Ycb2HuvHiI-1" parent="zjKLOU4Ie6Ycb2HuvHiI-0"/>
                &#xa;                
                <mxCell id="zjKLOU4Ie6Ycb2HuvHiI-2" value="" style="rounded=0;whiteSpace=wrap;html=1;strokeColor=none;strokeWidth=2;fillColor=#FFFFFF;" parent="zjKLOU4Ie6Ycb2HuvHiI-1" vertex="1">
                    &#xa;                    
                    <mxGeometry x="60" y="210" width="280" height="210" as="geometry"/>
                    &#xa;                
                </mxCell>
                &#xa;                
                <mxCell id="zjKLOU4Ie6Ycb2HuvHiI-3" value="&lt;font style=&quot;font-size: 16px&quot; color=&quot;#000000&quot;&gt;key&lt;/font&gt;" style="rounded=0;whiteSpace=wrap;html=1;strokeColor=#000000;strokeWidth=2;fillColor=none;" parent="zjKLOU4Ie6Ycb2HuvHiI-1" vertex="1">
                    &#xa;                    
                    <mxGeometry x="160" y="280" width="80" height="40" as="geometry"/>
                    &#xa;                
                </mxCell>
                &#xa;                
                <mxCell id="zjKLOU4Ie6Ycb2HuvHiI-4" value="&lt;font style=&quot;font-size: 16px&quot; color=&quot;#000000&quot;&gt;data&lt;/font&gt;" style="rounded=0;whiteSpace=wrap;html=1;strokeColor=#000000;strokeWidth=2;fillColor=none;" parent="zjKLOU4Ie6Ycb2HuvHiI-1" vertex="1">
                    &#xa;                    
                    <mxGeometry x="160" y="320" width="80" height="40" as="geometry"/>
                    &#xa;                
                </mxCell>
                &#xa;                
                <mxCell id="zjKLOU4Ie6Ycb2HuvHiI-5" value="" style="endArrow=none;html=1;entryX=1;entryY=0.5;entryDx=0;entryDy=0;strokeColor=#000000;strokeWidth=2;" parent="zjKLOU4Ie6Ycb2HuvHiI-1" target="zjKLOU4Ie6Ycb2HuvHiI-3" edge="1">
                    &#xa;                    
                    <mxGeometry width="50" height="50" relative="1" as="geometry">
                        &#xa;                        
                        <mxPoint x="290" y="330" as="sourcePoint"/>
                        &#xa;                        
                        <mxPoint x="440" y="560" as="targetPoint"/>
                        &#xa;                    
                    </mxGeometry>
                    &#xa;                
                </mxCell>
                &#xa;                
                <mxCell id="zjKLOU4Ie6Ycb2HuvHiI-6" value="" style="endArrow=none;html=1;entryX=0;entryY=0.5;entryDx=0;entryDy=0;strokeColor=#000000;strokeWidth=2;" parent="zjKLOU4Ie6Ycb2HuvHiI-1" target="zjKLOU4Ie6Ycb2HuvHiI-3" edge="1">
                    &#xa;                    
                    <mxGeometry width="50" height="50" relative="1" as="geometry">
                        &#xa;                        
                        <mxPoint x="110" y="330" as="sourcePoint"/>
                        &#xa;                        
                        <mxPoint x="250" y="310" as="targetPoint"/>
                        &#xa;                    
                    </mxGeometry>
                    &#xa;                
                </mxCell>
                &#xa;                
                <mxCell id="zjKLOU4Ie6Ycb2HuvHiI-7" value="" style="endArrow=none;html=1;entryX=0.5;entryY=0;entryDx=0;entryDy=0;strokeColor=#000000;strokeWidth=2;" parent="zjKLOU4Ie6Ycb2HuvHiI-1" target="zjKLOU4Ie6Ycb2HuvHiI-3" edge="1">
                    &#xa;                    
                    <mxGeometry width="50" height="50" relative="1" as="geometry">
                        &#xa;                        
                        <mxPoint x="200" y="240" as="sourcePoint"/>
                        &#xa;                        
                        <mxPoint x="260" y="320" as="targetPoint"/>
                        &#xa;                    
                    </mxGeometry>
                    &#xa;                
                </mxCell>
                &#xa;                
                <mxCell id="zjKLOU4Ie6Ycb2HuvHiI-8" value="&lt;span style=&quot;color: rgb(0 , 0 , 0) ; font-size: 16px&quot;&gt;right&lt;/span&gt;" style="text;html=1;strokeColor=none;fillColor=none;align=center;verticalAlign=middle;whiteSpace=wrap;rounded=0;" parent="zjKLOU4Ie6Ycb2HuvHiI-1" vertex="1">
                    &#xa;                    
                    <mxGeometry x="290" y="320" width="40" height="20" as="geometry"/>
                    &#xa;                
                </mxCell>
                &#xa;                
                <mxCell id="zjKLOU4Ie6Ycb2HuvHiI-9" value="&lt;span style=&quot;color: rgb(0 , 0 , 0) ; font-size: 16px&quot;&gt;left&lt;/span&gt;" style="text;html=1;strokeColor=none;fillColor=none;align=center;verticalAlign=middle;whiteSpace=wrap;rounded=0;" parent="zjKLOU4Ie6Ycb2HuvHiI-1" vertex="1">
                    &#xa;                    
                    <mxGeometry x="70" y="320" width="40" height="20" as="geometry"/>
                    &#xa;                
                </mxCell>
                &#xa;                
                <mxCell id="zjKLOU4Ie6Ycb2HuvHiI-10" value="&lt;span style=&quot;color: rgb(0 , 0 , 0) ; font-size: 16px&quot;&gt;parent&lt;/span&gt;" style="text;html=1;strokeColor=none;fillColor=none;align=center;verticalAlign=middle;whiteSpace=wrap;rounded=0;" parent="zjKLOU4Ie6Ycb2HuvHiI-1" vertex="1">
                    &#xa;                    
                    <mxGeometry x="180" y="220" width="40" height="20" as="geometry"/>
                    &#xa;                
                </mxCell>
                &#xa;                
                <mxCell id="zjKLOU4Ie6Ycb2HuvHiI-11" value="&lt;font style=&quot;font-size: 16px&quot; color=&quot;#000000&quot;&gt;isThread&lt;/font&gt;" style="rounded=0;whiteSpace=wrap;html=1;strokeColor=#000000;strokeWidth=2;fillColor=none;" parent="zjKLOU4Ie6Ycb2HuvHiI-1" vertex="1">
                    &#xa;                    
                    <mxGeometry x="160" y="360" width="80" height="40" as="geometry"/>
                    &#xa;                
                </mxCell>
                &#xa;            
            </root>
            &#xa;        
        </mxGraphModel>
        &#xa;    
    </diagram>
    <diagram name="double_tbst" id="g6dhlUzBVQGpR68r9uBf">
        &#xa;        
        <mxGraphModel dx="1705" dy="844" grid="1" gridSize="10" guides="1" tooltips="1" connect="1" arrows="1" fold="1" page="1" pageScale="1" pageWidth="827" pageHeight="1169" math="0" shadow="0">
            &#xa;            
            <root>
                &#xa;                
                <mxCell id="He7GBXqYuoeNfRca8x2A-0"/>
                &#xa;                
                <mxCell id="He7GBXqYuoeNfRca8x2A-1" parent="He7GBXqYuoeNfRca8x2A-0"/>
                &#xa;                
                <mxCell id="He7GBXqYuoeNfRca8x2A-2" value="" style="rounded=0;whiteSpace=wrap;html=1;strokeColor=none;strokeWidth=2;fillColor=#FFFFFF;" parent="He7GBXqYuoeNfRca8x2A-1" vertex="1">
                    &#xa;                    
                    <mxGeometry x="70" y="210" width="290" height="250" as="geometry"/>
                    &#xa;                
                </mxCell>
                &#xa;                
                <mxCell id="He7GBXqYuoeNfRca8x2A-3" value="&lt;font style=&quot;font-size: 16px&quot; color=&quot;#000000&quot;&gt;key&lt;/font&gt;" style="rounded=0;whiteSpace=wrap;html=1;strokeColor=#000000;strokeWidth=2;fillColor=none;" parent="He7GBXqYuoeNfRca8x2A-1" vertex="1">
                    &#xa;                    
                    <mxGeometry x="160" y="280" width="100" height="40" as="geometry"/>
                    &#xa;                
                </mxCell>
                &#xa;                
                <mxCell id="He7GBXqYuoeNfRca8x2A-4" value="&lt;font style=&quot;font-size: 16px&quot; color=&quot;#000000&quot;&gt;data&lt;/font&gt;" style="rounded=0;whiteSpace=wrap;html=1;strokeColor=#000000;strokeWidth=2;fillColor=none;" parent="He7GBXqYuoeNfRca8x2A-1" vertex="1">
                    &#xa;                    
                    <mxGeometry x="160" y="320" width="100" height="40" as="geometry"/>
                    &#xa;                
                </mxCell>
                &#xa;                
                <mxCell id="He7GBXqYuoeNfRca8x2A-5" value="" style="endArrow=none;html=1;entryX=1;entryY=0.5;entryDx=0;entryDy=0;strokeColor=#000000;strokeWidth=2;exitX=0;exitY=0.5;exitDx=0;exitDy=0;" parent="He7GBXqYuoeNfRca8x2A-1" source="He7GBXqYuoeNfRca8x2A-8" target="He7GBXqYuoeNfRca8x2A-3" edge="1">
                    &#xa;                    
                    <mxGeometry width="50" height="50" relative="1" as="geometry">
                        &#xa;                        
                        <mxPoint x="290" y="330" as="sourcePoint"/>
                        &#xa;                        
                        <mxPoint x="440" y="560" as="targetPoint"/>
                        &#xa;                    
                    </mxGeometry>
                    &#xa;                
                </mxCell>
                &#xa;                
                <mxCell id="He7GBXqYuoeNfRca8x2A-6" value="" style="endArrow=none;html=1;entryX=0;entryY=0.5;entryDx=0;entryDy=0;strokeColor=#000000;strokeWidth=2;" parent="He7GBXqYuoeNfRca8x2A-1" target="He7GBXqYuoeNfRca8x2A-3" edge="1">
                    &#xa;                    
                    <mxGeometry width="50" height="50" relative="1" as="geometry">
                        &#xa;                        
                        <mxPoint x="110" y="330" as="sourcePoint"/>
                        &#xa;                        
                        <mxPoint x="250" y="310" as="targetPoint"/>
                        &#xa;                    
                    </mxGeometry>
                    &#xa;                
                </mxCell>
                &#xa;                
                <mxCell id="He7GBXqYuoeNfRca8x2A-7" value="" style="endArrow=none;html=1;entryX=0.5;entryY=0;entryDx=0;entryDy=0;strokeColor=#000000;strokeWidth=2;exitX=0.5;exitY=1;exitDx=0;exitDy=0;" parent="He7GBXqYuoeNfRca8x2A-1" source="He7GBXqYuoeNfRca8x2A-10" target="He7GBXqYuoeNfRca8x2A-3" edge="1">
                    &#xa;                    
                    <mxGeometry width="50" height="50" relative="1" as="geometry">
                        &#xa;                        
                        <mxPoint x="200" y="240" as="sourcePoint"/>
                        &#xa;                        
                        <mxPoint x="260" y="320" as="targetPoint"/>
                        &#xa;                    
                    </mxGeometry>
                    &#xa;                
                </mxCell>
                &#xa;                
                <mxCell id="He7GBXqYuoeNfRca8x2A-8" value="&lt;span style=&quot;color: rgb(0 , 0 , 0) ; font-size: 16px&quot;&gt;right&lt;/span&gt;" style="text;html=1;strokeColor=none;fillColor=none;align=center;verticalAlign=middle;whiteSpace=wrap;rounded=0;" parent="He7GBXqYuoeNfRca8x2A-1" vertex="1">
                    &#xa;                    
                    <mxGeometry x="310" y="320" width="40" height="20" as="geometry"/>
                    &#xa;                
                </mxCell>
                &#xa;                
                <mxCell id="He7GBXqYuoeNfRca8x2A-9" value="&lt;span style=&quot;color: rgb(0 , 0 , 0) ; font-size: 16px&quot;&gt;left&lt;/span&gt;" style="text;html=1;strokeColor=none;fillColor=none;align=center;verticalAlign=middle;whiteSpace=wrap;rounded=0;" parent="He7GBXqYuoeNfRca8x2A-1" vertex="1">
                    &#xa;                    
                    <mxGeometry x="70" y="320" width="40" height="20" as="geometry"/>
                    &#xa;                
                </mxCell>
                &#xa;                
                <mxCell id="He7GBXqYuoeNfRca8x2A-10" value="&lt;span style=&quot;color: rgb(0 , 0 , 0) ; font-size: 16px&quot;&gt;parent&lt;/span&gt;" style="text;html=1;strokeColor=none;fillColor=none;align=center;verticalAlign=middle;whiteSpace=wrap;rounded=0;" parent="He7GBXqYuoeNfRca8x2A-1" vertex="1">
                    &#xa;                    
                    <mxGeometry x="190" y="220" width="40" height="20" as="geometry"/>
                    &#xa;                
                </mxCell>
                &#xa;                
                <mxCell id="He7GBXqYuoeNfRca8x2A-11" value="&lt;font color=&quot;#000000&quot;&gt;&lt;span style=&quot;font-size: 16px&quot;&gt;leftThread&lt;/span&gt;&lt;/font&gt;" style="rounded=0;whiteSpace=wrap;html=1;strokeColor=#000000;strokeWidth=2;fillColor=none;" parent="He7GBXqYuoeNfRca8x2A-1" vertex="1">
                    &#xa;                    
                    <mxGeometry x="160" y="360" width="100" height="40" as="geometry"/>
                    &#xa;                
                </mxCell>
                &#xa;                
                <mxCell id="He7GBXqYuoeNfRca8x2A-12" value="&lt;font style=&quot;font-size: 16px&quot; color=&quot;#000000&quot;&gt;rightThread&lt;/font&gt;" style="rounded=0;whiteSpace=wrap;html=1;strokeColor=#000000;strokeWidth=2;fillColor=none;" parent="He7GBXqYuoeNfRca8x2A-1" vertex="1">
                    &#xa;                    
                    <mxGeometry x="160" y="400" width="100" height="40" as="geometry"/>
                    &#xa;                
                </mxCell>
                &#xa;            
            </root>
            &#xa;        
        </mxGraphModel>
        &#xa;    
    </diagram>
    <diagram name="rbt" id="VzFlGmBxVmbo0kbwR7nA">
        <mxGraphModel dx="1705" dy="844" grid="1" gridSize="10" guides="1" tooltips="1" connect="1" arrows="1" fold="1" page="1" pageScale="1" pageWidth="827" pageHeight="1169" math="0" shadow="0">
            <root>
                <mxCell id="4KHqugbHBaA9uAxbNtbL-0"/>
                <mxCell id="4KHqugbHBaA9uAxbNtbL-1" parent="4KHqugbHBaA9uAxbNtbL-0"/>
                <mxCell id="4KHqugbHBaA9uAxbNtbL-2" value="" style="rounded=0;whiteSpace=wrap;html=1;strokeColor=none;strokeWidth=2;fillColor=#FFFFFF;" parent="4KHqugbHBaA9uAxbNtbL-1" vertex="1">
                    <mxGeometry x="60" y="215" width="280" height="205" as="geometry"/>
                </mxCell>
                <mxCell id="4KHqugbHBaA9uAxbNtbL-3" value="&lt;font style=&quot;font-size: 16px&quot; color=&quot;#000000&quot;&gt;key&lt;/font&gt;" style="rounded=0;whiteSpace=wrap;html=1;strokeColor=#000000;strokeWidth=2;fillColor=none;" parent="4KHqugbHBaA9uAxbNtbL-1" vertex="1">
                    <mxGeometry x="160" y="280" width="80" height="40" as="geometry"/>
                </mxCell>
                <mxCell id="4KHqugbHBaA9uAxbNtbL-4" value="&lt;font style=&quot;font-size: 16px&quot; color=&quot;#000000&quot;&gt;data&lt;/font&gt;" style="rounded=0;whiteSpace=wrap;html=1;strokeColor=#000000;strokeWidth=2;fillColor=none;" parent="4KHqugbHBaA9uAxbNtbL-1" vertex="1">
                    <mxGeometry x="160" y="320" width="80" height="40" as="geometry"/>
                </mxCell>
                <mxCell id="4KHqugbHBaA9uAxbNtbL-5" value="" style="endArrow=none;html=1;entryX=1;entryY=0.5;entryDx=0;entryDy=0;strokeColor=#000000;strokeWidth=2;" parent="4KHqugbHBaA9uAxbNtbL-1" target="4KHqugbHBaA9uAxbNtbL-3" edge="1">
                    <mxGeometry width="50" height="50" relative="1" as="geometry">
                        <mxPoint x="290" y="330" as="sourcePoint"/>
                        <mxPoint x="440" y="560" as="targetPoint"/>
                    </mxGeometry>
                </mxCell>
                <mxCell id="4KHqugbHBaA9uAxbNtbL-6" value="" style="endArrow=none;html=1;entryX=0;entryY=0.5;entryDx=0;entryDy=0;strokeColor=#000000;strokeWidth=2;" parent="4KHqugbHBaA9uAxbNtbL-1" target="4KHqugbHBaA9uAxbNtbL-3" edge="1">
                    <mxGeometry width="50" height="50" relative="1" as="geometry">
                        <mxPoint x="110" y="330" as="sourcePoint"/>
                        <mxPoint x="250" y="310" as="targetPoint"/>
                    </mxGeometry>
                </mxCell>
                <mxCell id="4KHqugbHBaA9uAxbNtbL-7" value="" style="endArrow=none;html=1;entryX=0.5;entryY=0;entryDx=0;entryDy=0;strokeColor=#000000;strokeWidth=2;" parent="4KHqugbHBaA9uAxbNtbL-1" target="4KHqugbHBaA9uAxbNtbL-3" edge="1">
                    <mxGeometry width="50" height="50" relative="1" as="geometry">
                        <mxPoint x="200" y="240" as="sourcePoint"/>
                        <mxPoint x="260" y="320" as="targetPoint"/>
                    </mxGeometry>
                </mxCell>
                <mxCell id="4KHqugbHBaA9uAxbNtbL-8" value="&lt;span style=&quot;color: rgb(0 , 0 , 0) ; font-size: 16px&quot;&gt;right&lt;/span&gt;" style="text;html=1;strokeColor=none;fillColor=none;align=center;verticalAlign=middle;whiteSpace=wrap;rounded=0;" parent="4KHqugbHBaA9uAxbNtbL-1" vertex="1">
                    <mxGeometry x="290" y="320" width="40" height="20" as="geometry"/>
                </mxCell>
                <mxCell id="4KHqugbHBaA9uAxbNtbL-9" value="&lt;span style=&quot;color: rgb(0 , 0 , 0) ; font-size: 16px&quot;&gt;left&lt;/span&gt;" style="text;html=1;strokeColor=none;fillColor=none;align=center;verticalAlign=middle;whiteSpace=wrap;rounded=0;" parent="4KHqugbHBaA9uAxbNtbL-1" vertex="1">
                    <mxGeometry x="70" y="320" width="40" height="20" as="geometry"/>
                </mxCell>
                <mxCell id="4KHqugbHBaA9uAxbNtbL-10" value="&lt;span style=&quot;color: rgb(0 , 0 , 0) ; font-size: 16px&quot;&gt;parent&lt;/span&gt;" style="text;html=1;strokeColor=none;fillColor=none;align=center;verticalAlign=middle;whiteSpace=wrap;rounded=0;" parent="4KHqugbHBaA9uAxbNtbL-1" vertex="1">
                    <mxGeometry x="180" y="220" width="40" height="20" as="geometry"/>
                </mxCell>
                <mxCell id="4KHqugbHBaA9uAxbNtbL-11" value="&lt;font style=&quot;font-size: 16px&quot; color=&quot;#000000&quot;&gt;color&lt;/font&gt;" style="rounded=0;whiteSpace=wrap;html=1;strokeColor=#000000;strokeWidth=2;fillColor=none;" parent="4KHqugbHBaA9uAxbNtbL-1" vertex="1">
                    <mxGeometry x="160" y="360" width="80" height="40" as="geometry"/>
                </mxCell>
            </root>
        </mxGraphModel>
    </diagram>
</mxfile>